{
  "asset": {
    "version": "2.0",
    "generator": "babylon.js glTF exporter for   v"
  },
  "scene": 0,
  "scenes": [
    {
      "nodes": [
        0,
        2
      ],
      "extensions": {}
    }
  ],
  "nodes": [
    {
      "children": [
        1
      ],
      "mesh": 0,
      "translation": [
        0,
        0,
        0
      ],
      "rotation": [
        0,
        0,
        0,
        1
      ],
      "scale": [
        1,
        1,
        1
      ],
      "name": "ramp"
    },
    {
      "mesh": 1,
      "translation": [
        0,
        0,
        0
      ],
      "rotation": [
        0,
        0,
        0,
        1
      ],
      "scale": [
        1,
        1,
        1
      ],
      "name": "ramp_collider"
    },
    {
      "mesh": 2,
      "translation": [
        -1.63196146,
        0,
        0
      ],
      "rotation": [
        0,
        0,
        0,
        1
      ],
      "scale": [
        1,
        1,
        1
      ],
      "name": "rails"
    }
  ],
  "meshes": [
    {
      "primitives": [
        {
          "attributes": {
            "POSITION": 1,
            "TANGENT": 2,
            "NORMAL": 3,
            "TEXCOORD_0": 4
          },
          "indices": 0,
          "mode": 4,
          "material": 0
        },
        {
          "attributes": {
            "POSITION": 6,
            "TANGENT": 7,
            "NORMAL": 8,
            "TEXCOORD_0": 9
          },
          "indices": 5,
          "mode": 4,
          "material": 1
        }
      ],
      "name": "ramp"
    },
    {
      "primitives": [
        {
          "attributes": {
            "POSITION": 11,
            "TANGENT": 12,
            "NORMAL": 13,
            "TEXCOORD_0": 14
          },
          "indices": 10,
          "mode": 4,
          "material": 0
        },
        {
          "attributes": {
            "POSITION": 16,
            "TANGENT": 17,
            "NORMAL": 18,
            "TEXCOORD_0": 19
          },
          "indices": 15,
          "mode": 4,
          "material": 1
        }
      ],
      "name": "ramp_collider"
    },
    {
      "primitives": [
        {
          "attributes": {
            "POSITION": 21,
            "TANGENT": 22,
            "NORMAL": 23,
            "TEXCOORD_0": 24
          },
          "indices": 20,
          "mode": 4,
          "material": 2
        }
      ],
      "name": "rails"
    }
  ],
  "accessors": [
    {
      "bufferView": 0,
      "componentType": 5123,
      "count": 102,
      "type": "SCALAR",
      "name": "accessorIndices",
      "byteOffset": 0
    },
    {
      "bufferView": 1,
      "componentType": 5126,
      "count": 68,
      "max": [
        -1.5,
        2.5,
        12.464922
      ],
      "min": [
        -4.5,
        -7.4505806e-8,
        3.53507781
      ],
      "type": "VEC3",
      "name": "accessorPositions",
      "byteOffset": 0
    },
    {
      "bufferView": 2,
      "componentType": 5126,
      "count": 68,
      "type": "VEC4",
      "name": "accessorTangents",
      "byteOffset": 0
    },
    {
      "bufferView": 1,
      "byteOffset": 816,
      "componentType": 5126,
      "count": 68,
      "type": "VEC3",
      "name": "accessorNormals"
    },
    {
      "bufferView": 3,
      "componentType": 5126,
      "count": 68,
      "type": "VEC2",
      "name": "accessorUVs",
      "byteOffset": 0
    },
    {
      "bufferView": 0,
      "byteOffset": 204,
      "componentType": 5123,
      "count": 24,
      "type": "SCALAR",
      "name": "accessorIndices"
    },
    {
      "bufferView": 1,
      "byteOffset": 1632,
      "componentType": 5126,
      "count": 12,
      "max": [
        -1.59999847,
        2.3,
        12.339983
      ],
      "min": [
        -4.399994,
        -7.4505806e-8,
        3.660017
      ],
      "type": "VEC3",
      "name": "accessorPositions"
    },
    {
      "bufferView": 2,
      "byteOffset": 1088,
      "componentType": 5126,
      "count": 12,
      "type": "VEC4",
      "name": "accessorTangents"
    },
    {
      "bufferView": 1,
      "byteOffset": 1776,
      "componentType": 5126,
      "count": 12,
      "type": "VEC3",
      "name": "accessorNormals"
    },
    {
      "bufferView": 3,
      "byteOffset": 544,
      "componentType": 5126,
      "count": 12,
      "type": "VEC2",
      "name": "accessorUVs"
    },
    {
      "bufferView": 0,
      "byteOffset": 252,
      "componentType": 5123,
      "count": 102,
      "type": "SCALAR",
      "name": "accessorIndices"
    },
    {
      "bufferView": 1,
      "byteOffset": 1920,
      "componentType": 5126,
      "count": 68,
      "max": [
        -1.5,
        2.5,
        12.464922
      ],
      "min": [
        -4.5,
        -7.4505806e-8,
        3.53507781
      ],
      "type": "VEC3",
      "name": "accessorPositions"
    },
    {
      "bufferView": 2,
      "byteOffset": 1280,
      "componentType": 5126,
      "count": 68,
      "type": "VEC4",
      "name": "accessorTangents"
    },
    {
      "bufferView": 1,
      "byteOffset": 2736,
      "componentType": 5126,
      "count": 68,
      "type": "VEC3",
      "name": "accessorNormals"
    },
    {
      "bufferView": 3,
      "byteOffset": 640,
      "componentType": 5126,
      "count": 68,
      "type": "VEC2",
      "name": "accessorUVs"
    },
    {
      "bufferView": 0,
      "byteOffset": 456,
      "componentType": 5123,
      "count": 24,
      "type": "SCALAR",
      "name": "accessorIndices"
    },
    {
      "bufferView": 1,
      "byteOffset": 3552,
      "componentType": 5126,
      "count": 12,
      "max": [
        -1.59999847,
        2.3,
        12.339983
      ],
      "min": [
        -4.399994,
        -7.4505806e-8,
        3.660017
      ],
      "type": "VEC3",
      "name": "accessorPositions"
    },
    {
      "bufferView": 2,
      "byteOffset": 2368,
      "componentType": 5126,
      "count": 12,
      "type": "VEC4",
      "name": "accessorTangents"
    },
    {
      "bufferView": 1,
      "byteOffset": 3696,
      "componentType": 5126,
      "count": 12,
      "type": "VEC3",
      "name": "accessorNormals"
    },
    {
      "bufferView": 3,
      "byteOffset": 1184,
      "componentType": 5126,
      "count": 12,
      "type": "VEC2",
      "name": "accessorUVs"
    },
    {
      "bufferView": 0,
      "byteOffset": 504,
      "componentType": 5123,
      "count": 480,
      "type": "SCALAR",
      "name": "accessorIndices"
    },
    {
      "bufferView": 1,
      "byteOffset": 3840,
      "componentType": 5126,
      "count": 168,
      "max": [
        -5.574519,
        2.78968835,
        9.940641
      ],
      "min": [
        -26.17164,
        2.1603117,
        6.04203558
      ],
      "type": "VEC3",
      "name": "accessorPositions"
    },
    {
      "bufferView": 2,
      "byteOffset": 2560,
      "componentType": 5126,
      "count": 168,
      "type": "VEC4",
      "name": "accessorTangents"
    },
    {
      "bufferView": 1,
      "byteOffset": 5856,
      "componentType": 5126,
      "count": 168,
      "type": "VEC3",
      "name": "accessorNormals"
    },
    {
      "bufferView": 3,
      "byteOffset": 1280,
      "componentType": 5126,
      "count": 168,
      "type": "VEC2",
      "name": "accessorUVs"
    },
    {
      "bufferView": 4,
      "componentType": 5126,
      "count": 2,
      "max": [
        1.9666667
      ],
      "min": [
        0
      ],
      "type": "SCALAR",
      "name": "accessorAnimationInput",
      "byteOffset": 0
    },
    {
      "bufferView": 5,
      "componentType": 5126,
      "count": 2,
      "type": "VEC3",
      "name": "accessorAnimationPositions",
      "byteOffset": 0
    }
  ],
  "bufferViews": [
    {
      "buffer": 0,
      "byteLength": 1464,
      "name": "bufferViewScalar",
      "byteOffset": 0,
      "target": 34963
    },
    {
      "buffer": 0,
      "byteOffset": 1464,
      "byteLength": 7872,
      "byteStride": 12,
      "name": "bufferViewFloatVec3",
      "target": 34962
    },
    {
      "buffer": 0,
      "byteOffset": 9336,
      "byteLength": 5248,
      "byteStride": 16,
      "name": "bufferViewFloatVec4",
      "target": 34962
    },
    {
      "buffer": 0,
      "byteOffset": 14584,
      "byteLength": 2624,
      "byteStride": 8,
      "name": "bufferViewFloatVec2",
      "target": 34962
    },
    {
      "buffer": 0,
      "byteOffset": 17208,
      "byteLength": 8,
      "name": "bufferViewAnimationFloatScalar"
    },
    {
      "buffer": 0,
      "byteOffset": 17216,
      "byteLength": 24,
      "name": "bufferViewAnimationFloatVec3"
    }
  ],
  "buffers": [
    {
      "name": "platforms",
      "byteLength": 17240,
      "uri": "data:application/octet-stream;base64,"
    }
  ],
  "materials": [
    {
      "pbrMetallicRoughness": {
        "baseColorFactor": [
          1,
          1,
          1,
          1
        ],
        "baseColorTexture": {
          "index": 0,
          "texCoord": 0
        },
        "metallicFactor": 0.1,
        "roughnessFactor": 0.9
      },
      "emissiveFactor": [
        0,
        0,
        0
      ],
      "alphaMode": "OPAQUE",
      "name": "greenCheckered_MTL",
      "doubleSided": false
    },
    {
      "pbrMetallicRoughness": {
        "baseColorFactor": [
          1,
          1,
          1,
          1
        ],
        "baseColorTexture": {
          "index": 1,
          "texCoord": 0
        },
        "metallicFactor": 0.1,
        "roughnessFactor": 0.9
      },
      "emissiveFactor": [
        0,
        0,
        0
      ],
      "alphaMode": "OPAQUE",
      "name": "brownCheckered_MTL",
      "doubleSided": false
    },
    {
      "pbrMetallicRoughness": {
        "baseColorFactor": [
          1,
          1,
          1,
          1
        ],
        "baseColorTexture": {
          "index": 2,
          "texCoord": 0
        },
        "metallicFactor": 0.7,
        "roughnessFactor": 0.5
      },
      "emissiveFactor": [
        0,
        0,
        0
      ],
      "alphaMode": "OPAQUE",
      "name": "greyCheckered_MTL",
      "doubleSided": false
    }
  ],
  "textures": [
    {
      "sampler": 0,
      "source": 0,
      "name": "greenCheckeredColor.png"
    },
    {
      "sampler": 0,
      "source": 1,
      "name": "brownCheckeredColor.png"
    },
    {
      "sampler": 0,
      "source": 2,
      "name": "greyCheckeredColor.png"
    }
  ],
  "images": [
    {
      "mimeType": "image/png",
      "uri": "greenCheckeredColor.png"
    },
    {
      "mimeType": "image/png",
      "uri": "brownCheckeredColor.png"
    },
    {
      "mimeType": "image/png",
      "uri": "greyCheckeredColor.png"
    }
  ],
  "samplers": [
    {
      "magFilter": 9729,
      "minFilter": 9987,
      "wrapS": 10497,
      "wrapT": 10497
    }
  ],
  "animations": [
    {
      "channels": [
        {
          "sampler": 0,
          "target": {
            "node": 2,
            "path": "translation"
          }
        }
      ],
      "samplers": [
        {
          "input": 25,
          "interpolation": "LINEAR",
          "output": 26
        }
      ],
      "name": "RotateGearA"
    }
  ]
}
